HIERARCHY
ROOT Hips
{
	OFFSET 0.000000 0.000000 0.000000 
	CHANNELS 6 Xposition Yposition Zposition Zrotation Yrotation Xrotation
	JOINT LeftUpLeg
	{
		OFFSET 1.363060 -1.794630 0.839290 
		CHANNELS 3 Zrotation Yrotation Xrotation
		JOINT LeftLeg
		{
			OFFSET 2.448110 -6.726130 0.000000 
			CHANNELS 3 Zrotation Yrotation Xrotation
			JOINT LeftFoot
			{
				OFFSET 2.562200 -7.039590 0.000000 
				CHANNELS 3 Zrotation Yrotation Xrotation
				JOINT LeftToeBase
				{
					OFFSET 0.157640 -0.433110 2.322550 
					CHANNELS 3 Zrotation Yrotation Xrotation
					End Site
					{
						OFFSET 0.000000 0.000000 0.000000 
					}
				}
			}
		}
	}
	JOINT RightUpLeg
	{
		OFFSET -1.305520 -1.794630 0.839290 
		CHANNELS 3 Zrotation Yrotation Xrotation
		JOINT RightLeg
		{
			OFFSET -2.542530 -6.985550 0.000000 
			CHANNELS 3 Zrotation Yrotation Xrotation
			JOINT RightFoot
			{
				OFFSET -2.568260 -7.056230 0.000000 
				CHANNELS 3 Zrotation Yrotation Xrotation
				JOINT RightToeBase
				{
					OFFSET -0.164730 -0.452590 2.363150 
					CHANNELS 3 Zrotation Yrotation Xrotation
					End Site
					{
						OFFSET 0.000000 0.000000 0.000000 
					}
				}
			}
		}
	}
	JOINT Spine
	{
		OFFSET 0.028270 2.035590 -0.193380 
		CHANNELS 3 Zrotation Yrotation Xrotation
		JOINT Spine1
		{
			OFFSET 0.056720 2.048850 -0.042750 
			CHANNELS 3 Zrotation Yrotation Xrotation
			JOINT Neck1
			{
				OFFSET -0.054170 1.746240 0.172020 
				CHANNELS 3 Zrotation Yrotation Xrotation
				JOINT Head
				{
					OFFSET 0.104070 1.761360 -0.123970 
					CHANNELS 3 Zrotation Yrotation Xrotation
					End Site
					{
						OFFSET 0.000000 0.000000 0.000000 
					}
				}
			}
			JOINT LeftArm
			{
				OFFSET 3.362410 1.200890 -0.311210 
				CHANNELS 3 Zrotation Yrotation Xrotation
				JOINT LeftForeArm
				{
					OFFSET 4.983000 -0.000000 -0.000000 
					CHANNELS 3 Zrotation Yrotation Xrotation
					JOINT LeftHand
					{
						OFFSET 3.483560 -0.000000 -0.000000 
						CHANNELS 3 Zrotation Yrotation Xrotation
						JOINT LeftHandIndex1
						{
							OFFSET 0.715260 -0.000000 -0.000000 
							CHANNELS 3 Zrotation Yrotation Xrotation
							End Site
							{
								OFFSET 0.000000 0.000000 0.000000 
							}
						}
					}
				}
			}
			JOINT RightArm
			{
				OFFSET -3.136600 1.374050 -0.404650 
				CHANNELS 3 Zrotation Yrotation Xrotation
				JOINT RightForeArm
				{
					OFFSET -5.241900 -0.000000 -0.000000 
					CHANNELS 3 Zrotation Yrotation Xrotation
					JOINT RightHand
					{
						OFFSET -3.444170 -0.000000 -0.000000 
						CHANNELS 3 Zrotation Yrotation Xrotation
						JOINT RightHandIndex1
						{
							OFFSET -0.622530 -0.000000 -0.000000 
							CHANNELS 3 Zrotation Yrotation Xrotation
							End Site
							{
								OFFSET 0.000000 0.000000 0.000000 
							}
						}
					}
				}
			}
		}
	}
}
MOTION
Frames: 15
Frame Time: 0.041667
-11.468498 17.860118 -0.298049 -50.908305 82.650553 -34.585129 -15.934064 -3.259515 -15.932276 -0.065072 3.728488 12.073902 0.035886 3.440515 -12.985767 0.587400 4.907300 13.644300 30.211741 13.807080 -15.629845 -1.057124 -4.423556 16.564430 0.224131 -5.937728 -11.888324 -0.007500 -0.561000 1.541500 -0.378630 1.248738 -5.380577 -12.825227 0.736372 3.810274 13.869924 49.674690 9.185628 -179.742000 66.246000 35.437800 -66.163916 3.969792 64.035301 126.637388 -45.226405 -93.720712 0.136670 -0.660313 -38.371274 -7.125000 0.000000 0.000000 84.217799 -6.934484 65.959015 -132.278397 41.622099 -93.328624 2.058412 -2.272783 -14.776429 7.125000 0.000000 0.000000 
-11.448310 17.859713 -0.272383 -50.740198 82.397613 -34.343307 -15.741685 -3.328543 -15.896509 -0.076393 3.743810 12.064717 -0.001931 3.630663 -12.998707 0.596100 4.942500 13.744800 30.439512 13.700738 -15.490030 -1.037637 -4.344041 16.364982 0.218275 -5.860882 -11.843200 -0.003000 -0.356100 0.978300 -1.859849 1.699624 -5.439742 -19.181753 0.888821 3.710720 14.798476 48.579020 9.469340 -179.986000 63.553000 35.323000 -60.899678 5.003595 61.513085 125.286046 -46.056702 -93.087435 0.342670 -0.681096 -32.382361 -7.125000 0.000000 0.000000 89.507854 -6.128741 66.526888 -132.353619 41.367953 -92.593708 2.292974 -2.561657 -14.249486 7.125000 0.000000 0.000000 
-11.429035 17.858800 -0.248442 -51.011456 82.557311 -34.580468 -15.520498 -3.504160 -15.796148 -0.074783 3.756155 12.151136 -0.040336 3.843966 -13.121077 0.595000 4.938400 13.732900 30.670859 13.704719 -15.330432 -1.008020 -4.278683 16.163548 0.217708 -5.885251 -11.903858 -0.000700 -0.175900 0.483300 1.640322 0.737956 -4.797102 -5.394333 0.633950 6.005391 12.999482 51.965621 9.217020 179.132000 66.871700 34.741200 -72.521485 0.620368 61.366755 123.738869 -46.264906 -91.041471 0.090101 -0.585872 -29.019468 -7.125000 0.000000 0.000000 77.856053 -6.694774 65.293030 -131.692534 42.220717 -93.628136 1.846573 -1.957989 -15.244105 7.125000 0.000000 0.000000 
-11.411384 17.858292 -0.226834 -51.342602 82.436162 -34.929007 -15.303416 -3.532089 -15.739830 -0.073271 3.793250 12.244187 -0.055182 3.947720 -13.218439 0.606200 4.983500 13.861500 30.923367 13.693727 -15.114547 -0.991385 -4.219664 16.024726 0.215039 -5.867416 -11.928400 -0.000200 -0.088400 0.242800 1.663736 0.758176 -4.833115 -5.438289 0.642589 5.912634 13.005934 52.101950 9.280645 178.850000 65.640600 34.452500 -72.400378 0.849657 61.959599 124.173670 -46.086000 -91.386883 0.064400 -0.590536 -30.915891 -7.125000 0.000000 0.000000 78.089679 -6.789728 65.230076 -131.563616 42.278905 -93.472860 1.849835 -1.980783 -15.160928 7.125000 0.000000 0.000000 
-11.391399 17.857785 -0.204211 -51.376959 82.259098 -35.054349 -15.075686 -3.399782 -15.602731 -0.080040 3.795447 12.235783 -0.073297 4.051322 -13.273318 0.623600 5.053600 14.061400 31.212935 13.671269 -14.829561 -0.984032 -4.176651 15.942736 0.206234 -5.794690 -11.939187 -0.000200 -0.101500 0.278900 1.651421 0.960363 -4.819407 -5.480646 0.745127 5.951285 13.152080 52.130258 9.414057 178.493000 64.482600 34.185400 -72.037500 0.988621 63.209141 124.768922 -45.825346 -91.822994 0.034163 -0.601457 -33.690178 -7.125000 0.000000 0.000000 78.577895 -6.743590 64.805678 -131.317198 42.393988 -93.214990 1.860758 -2.026074 -15.048473 7.125000 0.000000 0.000000 
-11.367052 17.857887 -0.181893 -51.606634 82.055373 -35.495976 -14.823414 -3.216899 -15.302332 -0.093802 3.771657 12.160875 -0.106635 4.220795 -13.316765 0.598500 4.952600 13.773500 31.557614 13.629865 -14.317953 -0.966567 -4.100202 15.789087 0.203805 -5.780150 -11.978352 -0.000100 -0.073600 0.202200 1.549074 1.373399 -4.775069 -5.709318 0.953469 6.037368 13.539753 52.055710 9.679914 177.904000 63.556600 33.895300 -71.342591 1.019856 64.286532 124.832009 -45.786830 -91.803935 0.033429 -0.613727 -34.381390 -7.125000 0.000000 0.000000 79.455433 -6.663455 63.942238 -131.042657 42.516126 -92.941165 1.884145 -2.085053 -14.941780 7.125000 0.000000 0.000000 
-11.344023 17.856771 -0.160894 -52.582690 81.901204 -36.716648 -14.532876 -3.130032 -14.996214 -0.089937 3.801429 12.245330 -0.102728 4.245057 -13.441907 0.598300 4.951600 13.770500 31.930890 13.589765 -13.741498 -0.940841 -4.013514 15.607925 0.209217 -5.857269 -12.083392 -0.000100 0.073000 -0.200700 1.499227 1.591515 -4.743991 -5.914161 1.063336 6.028466 13.765585 52.045447 9.846589 177.376000 62.456100 33.580700 -70.839346 1.080043 64.838419 124.917290 -45.748930 -91.850426 0.041022 -0.620601 -34.503437 -7.125000 0.000000 0.000000 80.080317 -6.704678 63.413459 -130.916664 42.560436 -92.820110 1.909433 -2.113613 -14.837693 7.125000 0.000000 0.000000 
-11.325560 17.852916 -0.140909 -53.593298 81.847033 -37.920179 -14.316912 -3.172614 -14.766073 -0.072883 3.875676 12.460086 -0.081530 4.208869 -13.620195 0.640700 5.120900 14.253600 32.198866 13.574925 -13.338870 -0.927361 -3.983610 15.566660 0.209833 -5.956852 -12.290363 -0.001100 0.209600 -0.575900 1.523122 1.606423 -4.712638 -5.965486 1.071779 5.992419 13.702172 52.038510 9.808284 177.113000 61.154500 33.319500 -70.624971 0.998224 64.988755 124.924469 -45.739441 -91.854089 0.043584 -0.623496 -34.596626 -7.125000 0.000000 0.000000 80.366842 -6.755238 63.192568 -130.851907 42.581687 -92.759964 1.923552 -2.121624 -14.737070 7.125000 0.000000 0.000000 
-11.306995 17.846423 -0.123460 -54.362520 81.791813 -38.807904 -14.133187 -3.269367 -14.595674 -0.063200 3.937237 12.635880 -0.088581 4.302784 -13.793927 0.658500 5.190000 14.451300 32.412258 13.569178 -13.116298 -0.927898 -4.000348 15.639918 0.202057 -6.008676 -12.514938 -0.001600 0.261400 -0.718200 1.549189 1.611791 -4.696915 -6.030497 1.077271 5.955590 13.787796 52.243807 9.925335 176.743000 60.130400 33.110300 -70.478888 0.873663 65.095295 124.882969 -45.747571 -91.818207 0.046296 -0.626836 -34.649158 -7.125000 0.000000 0.000000 80.650982 -6.915927 63.021184 -130.795100 42.600339 -92.693818 1.933980 -2.135983 -14.499284 7.125000 0.000000 0.000000 
-11.286300 17.840134 -0.106721 -55.500906 81.740338 -40.004633 -13.917706 -3.428470 -14.483539 -0.055708 3.993504 12.796863 -0.103806 4.427602 -13.947700 0.657600 5.186600 14.441600 32.639306 13.591791 -12.935188 -0.923477 -4.000286 15.658829 0.192098 -6.029818 -12.707408 -0.002100 0.294800 -0.810000 1.583074 1.581641 -4.721812 -6.105313 1.062601 5.860341 13.816407 52.546664 10.053908 176.785000 59.199700 33.182800 -70.407840 0.921880 65.191219 124.872089 -45.750310 -91.803618 0.047235 -0.629109 -34.635472 -7.125000 0.000000 0.000000 80.938643 -7.296577 62.919413 -130.862913 42.553985 -92.748473 1.945703 -2.148199 -14.197964 7.125000 0.000000 0.000000 
-11.267229 17.834453 -0.089273 -56.984110 81.776574 -41.572150 -13.766973 -3.473030 -14.419677 -0.037222 4.060033 12.994504 -0.090645 4.393894 -14.019898 0.662700 5.206500 14.498400 32.813166 13.556513 -12.724600 -0.910588 -3.976776 15.610119 0.191000 -6.103001 -12.874279 -0.002500 0.325400 -0.894200 1.611271 1.526632 -4.730341 -6.164672 1.032963 5.805455 13.871072 52.934038 10.216209 177.014000 58.368100 33.434300 -70.300843 0.947614 65.315723 124.898605 -45.737913 -91.820209 0.049227 -0.630577 -34.685774 -7.125000 0.000000 0.000000 81.153003 -7.538898 62.719187 -130.980203 42.493213 -92.863858 1.946834 -2.166106 -14.044712 7.125000 0.000000 0.000000 
-11.250287 17.829380 -0.073041 -58.478685 81.810023 -43.123345 -13.635601 -3.378213 -14.445219 -0.017650 4.129515 13.196643 -0.071070 4.333861 -14.099827 0.633400 5.092400 14.172200 32.977434 13.480410 -12.614641 -0.905166 -3.979257 15.625242 0.197724 -6.202337 -12.979439 -0.001800 0.275200 -0.756000 1.643985 1.499344 -4.741818 -6.179996 1.015447 5.743945 13.828140 53.135526 10.275388 177.309000 57.470800 33.641800 -70.222608 0.860105 65.487345 124.879058 -45.737318 -91.790566 0.049477 -0.631926 -34.752647 -7.125000 0.000000 0.000000 81.222593 -7.628648 62.476918 -131.085329 42.448416 -92.983872 1.939537 -2.167492 -14.155704 7.125000 0.000000 0.000000 
-11.230606 17.825525 -0.058230 -59.629569 81.777056 -44.309587 -13.466920 -3.317024 -14.402983 -0.015097 4.154491 13.268824 -0.071524 4.381293 -14.224615 0.582200 4.885900 13.583400 33.174003 13.382252 -12.540792 -0.910223 -3.995975 15.684042 0.193060 -6.188727 -13.026104 -0.001600 0.259600 -0.713300 1.668102 1.518736 -4.773016 -6.216285 1.021695 5.642008 13.872366 53.324187 10.380269 177.254000 56.897400 33.653000 -70.171795 0.774200 65.698400 124.800251 -45.758313 -91.703624 0.046897 -0.634468 -34.762113 -7.125000 0.000000 0.000000 81.291877 -7.750457 62.274070 -131.161563 42.417301 -93.071750 1.934411 -2.146355 -14.442162 7.125000 0.000000 0.000000 
-11.206868 17.822076 -0.044129 -60.420573 81.742400 -45.235611 -13.322249 -3.334508 -14.127714 -0.023672 4.129434 13.211252 -0.081790 4.454269 -14.301234 0.561500 4.799400 13.337400 33.358782 13.240986 -12.299578 -0.914210 -3.992805 15.706502 0.183066 -6.129789 -13.064442 -0.001000 0.207900 -0.571100 1.687931 1.499917 -4.760310 -6.281803 1.014035 5.603852 13.847711 53.435992 10.399160 177.073000 56.235400 33.534700 -70.080083 0.650050 65.797678 124.770046 -45.762495 -91.675888 0.049586 -0.636279 -34.771585 -7.125000 0.000000 0.000000 81.342217 -7.881726 62.155844 -131.210371 42.396710 -93.125263 1.931825 -2.131784 -14.537195 7.125000 0.000000 0.000000 
-11.182521 17.819134 -0.029318 -61.976824 81.724346 -46.963675 -13.115617 -3.413442 -13.802243 -0.026171 4.106013 13.166728 -0.071857 4.417984 -14.330555 0.566500 4.820600 13.397600 33.596849 13.093842 -11.981458 -0.910740 -3.977409 15.696711 0.184922 -6.156828 -13.106154 -0.000000 -0.018400 0.050600 1.732693 1.420172 -4.723938 -6.301232 0.976607 5.608594 13.712463 53.475164 10.315794 176.989000 55.462700 33.423400 -70.061631 0.428990 65.870385 124.721105 -45.770236 -91.631208 0.051796 -0.636907 -34.823008 -7.125000 0.000000 0.000000 81.268776 -8.013189 62.042803 -131.301100 42.351259 -93.249976 1.934126 -2.121636 -14.440823 7.125000 0.000000 0.000000 
